<svg id="Layer_2" data-name="Layer 2" xmlns="http://www.w3.org/2000/svg" width="68" height="68" viewBox="0 0 68 68">
  <g id="alert-triangle">
    <rect id="Rectangle_2627" data-name="Rectangle 2627" width="68" height="68" transform="translate(68) rotate(90)" fill="#ff3d71" opacity="0"/>
    <path id="Path_8408" data-name="Path 8408" d="M62.064,42.521,40.332,6.481a9.718,9.718,0,0,0-16.377,0L2.224,42.521a8.5,8.5,0,0,0-.142,8.5,9.548,9.548,0,0,0,8.33,4.817H53.875a9.548,9.548,0,0,0,8.33-4.7,8.5,8.5,0,0,0-.142-8.613ZM57.247,48.33a3.712,3.712,0,0,1-3.372,1.842H10.412A3.712,3.712,0,0,1,7.04,48.33a2.833,2.833,0,0,1,0-2.833L28.8,9.428a4.193,4.193,0,0,1,6.687,0l21.732,36.04a2.833,2.833,0,0,1,.028,2.862Z" transform="translate(1.856 3.662)" fill="#ff3d71"/>
    <ellipse id="Ellipse_2513" data-name="Ellipse 2513" cx="2" cy="3" rx="2" ry="3" transform="translate(32 42)" fill="#ff3d71"/>
    <path id="Path_8409" data-name="Path 8409" d="M13.833,8A2.833,2.833,0,0,0,11,10.833V22.167a2.833,2.833,0,1,0,5.667,0V10.833A2.833,2.833,0,0,0,13.833,8Z" transform="translate(20.167 14.667)" fill="#ff3d71"/>
  </g>
</svg>
