<?xml version="1.0" encoding="utf-8"?>
<!-- Generator: Adobe Illustrator 27.0.1, SVG Export Plug-In . SVG Version: 6.00 Build 0)  -->
<svg version="1.1" id="圖層_1" xmlns="http://www.w3.org/2000/svg" xmlns:xlink="http://www.w3.org/1999/xlink" x="0px" y="0px"
	 viewBox="0 0 24 24" style="enable-background:new 0 0 24 24;" xml:space="preserve">
<style type="text/css">
	.st0{fill:#222B45;fill-opacity:0;}
	.st1{fill:#222B45;}
</style>
<g>
	<g>
		<rect class="st0" width="24" height="24"/>
		<path class="st1" d="M6.1,21.1c-0.6,0-1-0.4-1-1L4.9,5.4c0-1.2,1-2.3,2.2-2.3l0,0L16.7,3C18,3,19,4.1,18.9,5.3l0,0L19.1,20
			c0,0.4-0.2,0.7-0.5,0.9c-0.3,0.2-0.7,0.2-1,0l-5.7-3.2l-5.3,3.2C6.4,21,6.3,21,6.1,21.1z M11.9,15.5c0.2,0,0.3,0,0.5,0.1l4.7,2.6
			L16.9,5.3c0-0.2-0.1-0.3-0.2-0.3L7.1,5.1C7,5.1,6.9,5.2,6.9,5.4L7,18.3l4.3-2.6C11.5,15.6,11.7,15.5,11.9,15.5z"/>
	</g>
</g>
</svg>
