<?xml version="1.0" encoding="utf-8"?>
<!-- Generator: Adobe Illustrator 27.0.0, SVG Export Plug-In . SVG Version: 6.00 Build 0)  -->
<svg version="1.1" id="圖層_1" xmlns="http://www.w3.org/2000/svg" xmlns:xlink="http://www.w3.org/1999/xlink" x="0px" y="0px"
	 viewBox="0 0 24 24" style="enable-background:new 0 0 24 24;" xml:space="preserve">
<style type="text/css">
	.st0{fill:#FF3D71;fill-opacity:0;}
	.st1{fill:#FF3D71;}
</style>
<g>
	<g>
		<rect class="st0" width="24" height="24"/>
		<path class="st1" d="M13.4,12l4.3-4.3c0.4-0.4,0.4-1,0-1.4s-1-0.4-1.4,0L12,10.6L7.7,6.3c-0.4-0.4-1-0.4-1.4,0s-0.4,1,0,1.4
			l4.3,4.3l-4.3,4.3c-0.4,0.4-0.4,1,0,1.4c0,0,0,0,0,0c0.4,0.4,1,0.4,1.4,0c0,0,0,0,0,0l4.3-4.3l4.3,4.3c0.4,0.4,1,0.4,1.4,0
			c0,0,0,0,0,0c0.4-0.4,0.4-1,0-1.4c0,0,0,0,0,0L13.4,12z"/>
	</g>
</g>
</svg>
