<?xml version="1.0" encoding="utf-8"?>
<!-- Generator: Adobe Illustrator 27.0.0, SVG Export Plug-In . SVG Version: 6.00 Build 0)  -->
<svg version="1.1" id="圖層_1" xmlns="http://www.w3.org/2000/svg" xmlns:xlink="http://www.w3.org/1999/xlink" x="0px" y="0px"
	 viewBox="0 0 24 24" style="enable-background:new 0 0 24 24;" xml:space="preserve">
<style type="text/css">
	.st0{fill:#FF3D71;fill-opacity:0;}
	.st1{fill:#FF3D71;}
</style>
<g>
	<g>
		<rect class="st0" width="24" height="24"/>
		<path class="st1" d="M21,6h-5V4.3C16,3,14.8,2,13.5,2h-3C9.2,2,8,3,8,4.3V6H3C2.4,6,2,6.4,2,7s0.4,1,1,1h1v11c0,1.7,1.3,3,3,3h10
			c1.7,0,3-1.3,3-3V8h1c0.6,0,1-0.4,1-1S21.6,6,21,6z M10,4.3C10,4.2,10.2,4,10.5,4h3C13.8,4,14,4.2,14,4.3V6h-4V4.3z M18,19
			c0,0.6-0.4,1-1,1H7c-0.6,0-1-0.4-1-1V8h12V19z"/>
		<path class="st1" d="M9,17c0.6,0,1-0.4,1-1v-4c0-0.6-0.4-1-1-1s-1,0.4-1,1v4C8,16.6,8.4,17,9,17z"/>
		<path class="st1" d="M15,17c0.6,0,1-0.4,1-1v-4c0-0.6-0.4-1-1-1s-1,0.4-1,1v4C14,16.6,14.4,17,15,17z"/>
	</g>
</g>
</svg>
