<?xml version="1.0" encoding="utf-8"?>
<!-- Generator: Adobe Illustrator 27.1.1, SVG Export Plug-In . SVG Version: 6.00 Build 0)  -->
<svg version="1.1" id="圖層_1" xmlns="http://www.w3.org/2000/svg" xmlns:xlink="http://www.w3.org/1999/xlink" x="0px" y="0px"
	 viewBox="0 0 24 24" style="enable-background:new 0 0 24 24;" xml:space="preserve">
<style type="text/css">
	.st0{fill:#FF3D71;fill-opacity:0;}
	.st1{fill:#FF3D71;}
</style>
<g>
	<g>
		<rect y="0" class="st0" width="24" height="24"/>
		<path class="st1" d="M22.6,16.3L14.9,3.6c-1-1.6-3.1-2.1-4.7-1c-0.4,0.3-0.8,0.6-1,1L1.4,16.3c-0.6,0.9-0.6,2.1,0,3
			C2,20.4,3.1,21,4.3,21h15.3c1.2,0,2.3-0.6,2.9-1.7C23.1,18.4,23.1,17.2,22.6,16.3z M20.9,18.3c-0.2,0.4-0.7,0.7-1.2,0.6H4.3
			c-0.5,0-0.9-0.2-1.2-0.6c-0.2-0.3-0.2-0.7,0-1l7.7-12.7c0.5-0.7,1.4-0.8,2.1-0.3c0.1,0.1,0.2,0.2,0.3,0.3l7.7,12.7
			C21,17.7,21,18,20.9,18.3z"/>
		<circle class="st1" cx="12" cy="16" r="1"/>
		<path class="st1" d="M12,8c-0.6,0-1,0.4-1,1v4c0,0.6,0.4,1,1,1s1-0.4,1-1V9C13,8.4,12.6,8,12,8z"/>
	</g>
</g>
</svg>
