<svg xmlns="http://www.w3.org/2000/svg" xmlns:xlink="http://www.w3.org/1999/xlink" width="114" height="32" viewBox="0 0 114 32">
  <defs>
    <clipPath id="clip-path">
      <rect id="Rectangle_2669" data-name="Rectangle 2669" width="114" height="32" transform="translate(7644 9333)" fill="#fff" stroke="#707070" stroke-width="1"/>
    </clipPath>
  </defs>
  <g id="Mask_Group_12" data-name="Mask Group 12" transform="translate(-7644 -9333)" clip-path="url(#clip-path)">
    <g id="Group_11402" data-name="Group 11402" transform="translate(2780 9316)">
      <g id="Group_864" data-name="Group 864" transform="translate(4805.277 -272.408)">
        <g id="Group_873" data-name="Group 873" transform="translate(60.723 291.408)">
          <g id="Group_872" data-name="Group 872">
            <g id="Group_871" data-name="Group 871">
              <g id="Group_869" data-name="Group 869">
                <path id="Path_614" data-name="Path 614" d="M226.411,320.147a6.3,6.3,0,1,1,6.384-6.3A6.185,6.185,0,0,1,226.411,320.147Zm0-9.287a2.993,2.993,0,1,0,2.839,2.989A2.9,2.9,0,0,0,226.411,310.859Z" transform="translate(-160.694 -301.538)" fill="#302d2c"/>
                <path id="Path_615" data-name="Path 615" d="M120.057,315.884a1.705,1.705,0,0,1,.933,3.13,6.18,6.18,0,0,1-3.479,1.023,6.3,6.3,0,0,1-6.289-6.346,6.224,6.224,0,0,1,6.26-6.289c3.2,0,6.174,2.625,6.174,5.481,0,1.3-1.1,2.163-2.77,2.163h-5.971a2.618,2.618,0,0,0,2.539,1.7,2.418,2.418,0,0,0,1.556-.5,1.778,1.778,0,0,1,1.047-.361Zm-.151-3.4a2.524,2.524,0,0,0-2.51-1.76,2.665,2.665,0,0,0-2.6,1.76Z" transform="translate(-92.414 -301.445)" fill="#302d2c"/>
                <g id="Group_864-2" data-name="Group 864" transform="translate(46.713 5.991)">
                  <path id="Path_616" data-name="Path 616" d="M192.4,307.494a6.218,6.218,0,0,0-6.255,6.223,6.377,6.377,0,0,0,10.51,4.894,1.655,1.655,0,0,0-.325-2.708,1.635,1.635,0,0,0-1.881.205,2.7,2.7,0,0,1-1.921.715,3.02,3.02,0,0,1-.086-6.02,2.907,2.907,0,0,1,2.727,1.394l2.525-2.017A6.392,6.392,0,0,0,192.4,307.494Z" transform="translate(-186.142 -307.494)" fill="#302d2c"/>
                </g>
                <g id="Group_865" data-name="Group 865" transform="translate(71.18 6.012)">
                  <path id="Path_617" data-name="Path 617" d="M267.179,308.507l-3.59,5.237v-3.993a2.2,2.2,0,0,0-2.2-2.2h0a2.2,2.2,0,0,0-1.815.956l-7.742,11.278h4.033l4.233-6.5.005,4.837A1.883,1.883,0,0,0,261.985,320h0a1.881,1.881,0,0,0,1.542-.8c1.256-1.79,4.176-5.957,4.176-5.957v5.012A1.746,1.746,0,0,0,269.449,320h0a1.746,1.746,0,0,0,1.746-1.746v-8.5a2.2,2.2,0,0,0-2.2-2.2h0A2.2,2.2,0,0,0,267.179,308.507Z" transform="translate(-251.831 -307.55)" fill="#302d2c"/>
                </g>
                <g id="Group_866" data-name="Group 866" transform="translate(0 6.012)">
                  <path id="Path_618" data-name="Path 618" d="M64.739,319.041l3.59-5.238V317.8a2.2,2.2,0,0,0,2.2,2.2h0a2.2,2.2,0,0,0,1.815-.955l5.966-8.691a1.651,1.651,0,0,0-1.361-2.586h0a1.652,1.652,0,0,0-1.384.751l-3.744,5.753-.005-4.837a1.884,1.884,0,0,0-1.884-1.882h0a1.881,1.881,0,0,0-1.542.8c-1.256,1.789-4.176,5.957-4.176,5.957V307.55H60.723V317.8a2.2,2.2,0,0,0,2.2,2.2h0A2.2,2.2,0,0,0,64.739,319.041Z" transform="translate(-60.723 -307.55)" fill="#302d2c"/>
                </g>
                <g id="Group_867" data-name="Group 867" transform="translate(91.165 6.012)">
                  <path id="Path_619" data-name="Path 619" d="M320.838,308.507l-3.591,5.237v-3.993a2.2,2.2,0,0,0-2.2-2.2h0a2.2,2.2,0,0,0-1.815.956l-7.742,11.278h4.033l4.233-6.5,0,4.837A1.883,1.883,0,0,0,315.643,320h0a1.882,1.882,0,0,0,1.542-.8c1.256-1.79,4.176-5.957,4.176-5.957v5.012A1.746,1.746,0,0,0,323.107,320h0a1.746,1.746,0,0,0,1.746-1.746v-8.5a2.2,2.2,0,0,0-2.2-2.2h0A2.2,2.2,0,0,0,320.838,308.507Z" transform="translate(-305.489 -307.55)" fill="#302d2c"/>
                </g>
                <g id="Group_868" data-name="Group 868" transform="translate(32.686)">
                  <path id="Path_620" data-name="Path 620" d="M155.109,297.29c-.07,0-.135,0-.2.005v3.383a2.969,2.969,0,0,1,0,5.935,2.91,2.91,0,0,1-2.866-2.953V291.408H148.48v11.325a7,7,0,0,0,1.013,4.373,6.413,6.413,0,0,0,11.813-3.474A6.348,6.348,0,0,0,155.109,297.29Z" transform="translate(-148.48 -291.408)" fill="#302d2c"/>
                </g>
              </g>
              <g id="Group_870" data-name="Group 870" transform="translate(14.602 5.887)">
                <circle id="Ellipse_42" data-name="Ellipse 42" cx="1.65" cy="1.65" r="1.65" transform="translate(0 0.303)" fill="#008cd0"/>
                <path id="Path_621" data-name="Path 621" d="M161.422,308.906a1.691,1.691,0,1,0,1.691-1.691A1.691,1.691,0,0,0,161.422,308.906Z" transform="translate(-138.518 -307.215)" fill="#008cd0"/>
                <circle id="Ellipse_43" data-name="Ellipse 43" cx="1.7" cy="1.7" r="1.7" transform="translate(11.376 8.537)" fill="#008cd0"/>
                <path id="Path_622" data-name="Path 622" d="M206.87,331.148a1.684,1.684,0,1,0,1.683-1.684A1.684,1.684,0,0,0,206.87,331.148Z" transform="translate(-167.038 -321.178)" fill="#008cd0"/>
                <path id="Path_623" data-name="Path 623" d="M241.3,312.621a1.745,1.745,0,1,0,1.745-1.745A1.745,1.745,0,0,0,241.3,312.621Z" transform="translate(-188.644 -309.512)" fill="#008cd0"/>
                <path id="Path_624" data-name="Path 624" d="M294.45,333.348a1.745,1.745,0,1,0,1.745-1.745A1.744,1.744,0,0,0,294.45,333.348Z" transform="translate(-221.998 -322.52)" fill="#008cd0"/>
                <path id="Path_625" data-name="Path 625" d="M348.113,333.348a1.745,1.745,0,1,0,1.745-1.745A1.745,1.745,0,0,0,348.113,333.348Z" transform="translate(-255.674 -322.52)" fill="#008cd0"/>
              </g>
            </g>
          </g>
        </g>
        <g id="Group_874" data-name="Group 874" transform="translate(95.457 315.846)">
          <path id="Path_626" data-name="Path 626" d="M156.814,360.433h-.765l-.1-2.209h-.009l-.922,2.209h-.788l-.249-3.412h.885l.046,2.218h.009l.913-2.218h.669l.083,2.227h.009l.876-2.227h.881Z" transform="translate(-153.978 -357.021)" fill="#302d2c"/>
          <path id="Path_627" data-name="Path 627" d="M167.462,360.676h-1.918v.019a.461.461,0,0,0,.512.466.658.658,0,0,0,.507-.24h.784a1.727,1.727,0,0,1-1.411.885,1.087,1.087,0,0,1-1.13-1.107,1.705,1.705,0,0,1,1.619-1.623,1.064,1.064,0,0,1,1.12,1.116A1.418,1.418,0,0,1,167.462,360.676Zm-1.153-.954a.713.713,0,0,0-.659.438h1.162A.457.457,0,0,0,166.309,359.721Z" transform="translate(-160.773 -358.311)" fill="#302d2c"/>
          <path id="Path_628" data-name="Path 628" d="M180.615,360.326l-.258,1.4h-.765l.254-1.36a1.533,1.533,0,0,0,.028-.249.282.282,0,0,0-.318-.318c-.337,0-.466.235-.521.53l-.258,1.4h-.765l.258-1.393a1.016,1.016,0,0,0,.023-.2c0-.2-.092-.332-.309-.332-.35,0-.479.263-.535.567l-.254,1.36h-.765l.475-2.559h.715l-.051.272h.009a.91.91,0,0,1,.77-.36.643.643,0,0,1,.655.456,1.153,1.153,0,0,1,.895-.456.762.762,0,0,1,.627.258.683.683,0,0,1,.161.452A3.023,3.023,0,0,1,180.615,360.326Z" transform="translate(-168.066 -358.311)" fill="#302d2c"/>
          <path id="Path_629" data-name="Path 629" d="M191.281,361.723h-.766l.051-.277h-.009a1.072,1.072,0,0,1-1.877-.705,1.648,1.648,0,0,1,1.568-1.664.7.7,0,0,1,.683.36h.009l.051-.272h.765Zm-1.052-1.932a.8.8,0,0,0-.765.766.5.5,0,0,0,.526.539.793.793,0,0,0,.775-.779A.5.5,0,0,0,190.229,359.79Z" transform="translate(-175.755 -358.311)" fill="#302d2c"/>
          <path id="Path_630" data-name="Path 630" d="M199.024,359l.669,1.434h-.867l-.5-1.231h-.009l-.226,1.231h-.766l.632-3.412h.765l-.327,1.78h.009l.881-.927h.908Z" transform="translate(-181.181 -357.021)" fill="#302d2c"/>
          <path id="Path_631" data-name="Path 631" d="M207.184,360.676h-1.919v.019a.461.461,0,0,0,.512.466.659.659,0,0,0,.507-.24h.784a1.727,1.727,0,0,1-1.411.885,1.087,1.087,0,0,1-1.13-1.107,1.705,1.705,0,0,1,1.619-1.623,1.064,1.064,0,0,1,1.121,1.116A1.418,1.418,0,0,1,207.184,360.676Zm-1.153-.954a.713.713,0,0,0-.66.438h1.162A.457.457,0,0,0,206.032,359.721Z" transform="translate(-185.7 -358.311)" fill="#302d2c"/>
          <path id="Path_632" data-name="Path 632" d="M217.678,362.723h-.812l.586-.983-.5-2.43h.816L218,360.8h.009l.765-1.485h.812Z" transform="translate(-193.443 -358.458)" fill="#302d2c"/>
          <path id="Path_633" data-name="Path 633" d="M226.462,360.448a1.681,1.681,0,0,1-1.632,1.36,1.063,1.063,0,0,1-1.153-1.107,1.147,1.147,0,0,1,.028-.254,1.673,1.673,0,0,1,1.628-1.36,1.063,1.063,0,0,1,1.153,1.107A1.488,1.488,0,0,1,226.462,360.448ZM225.2,359.8a.786.786,0,0,0-.742.775.494.494,0,0,0,.507.517.786.786,0,0,0,.742-.775A.494.494,0,0,0,225.2,359.8Z" transform="translate(-197.717 -358.318)" fill="#302d2c"/>
          <path id="Path_634" data-name="Path 634" d="M234.276,361.87h-.724l.051-.272h-.009a.8.8,0,0,1-.729.355.78.78,0,0,1-.692-.323.745.745,0,0,1-.129-.429,2.365,2.365,0,0,1,.042-.36l.286-1.531h.765l-.263,1.416a.981.981,0,0,0-.023.2c0,.217.124.309.337.309.323,0,.484-.226.535-.521l.263-1.406h.765Z" transform="translate(-202.968 -358.458)" fill="#302d2c"/>
          <path id="Path_635" data-name="Path 635" d="M241.361,359.846c-.35.009-.618.083-.687.47-.092.47-.175.936-.263,1.406h-.765l.475-2.559h.72l-.051.272h.009a.783.783,0,0,1,.706-.36Z" transform="translate(-207.738 -358.311)" fill="#302d2c"/>
          <path id="Path_636" data-name="Path 636" d="M249.838,360.521a.686.686,0,0,1-.664-.36h-.009l-.051.272h-.733l.632-3.412h.766l-.194,1.056a1.141,1.141,0,0,1,.793-.29.993.993,0,0,1,1.042,1.038A1.652,1.652,0,0,1,249.838,360.521Zm.277-2.02a.793.793,0,0,0-.77.784.484.484,0,0,0,.512.521.8.8,0,0,0,.775-.779A.5.5,0,0,0,250.115,358.5Z" transform="translate(-213.22 -357.021)" fill="#302d2c"/>
          <path id="Path_637" data-name="Path 637" d="M259.586,361.87h-.724l.051-.272H258.9a.8.8,0,0,1-.729.355.78.78,0,0,1-.692-.323.744.744,0,0,1-.129-.429,2.368,2.368,0,0,1,.041-.36l.286-1.531h.765l-.263,1.416a.984.984,0,0,0-.023.2c0,.217.125.309.337.309.323,0,.484-.226.535-.521l.263-1.406h.765Z" transform="translate(-218.851 -358.458)" fill="#302d2c"/>
          <path id="Path_638" data-name="Path 638" d="M267.093,359.883h-.752c0-.014,0-.027,0-.041,0-.12-.1-.152-.208-.152s-.254.069-.254.2c0,.346,1.107.194,1.107.9a1.139,1.139,0,0,1-1.222,1.024c-.475,0-.885-.235-.885-.756a.624.624,0,0,1,0-.092h.761l0,.018c0,.152.111.217.249.217s.309-.083.309-.244c0-.337-1.1-.268-1.1-.923a.858.858,0,0,1,.01-.111,1.143,1.143,0,0,1,1.148-.844c.452,0,.84.207.84.71A.648.648,0,0,1,267.093,359.883Z" transform="translate(-223.576 -358.311)" fill="#302d2c"/>
          <path id="Path_639" data-name="Path 639" d="M272.049,360.433h-.765l.475-2.559h.766Zm.526-2.831h-.765l.106-.581h.766Z" transform="translate(-227.592 -357.021)" fill="#302d2c"/>
          <path id="Path_640" data-name="Path 640" d="M277.612,360.123l-.295,1.6h-.766l.259-1.4a1.128,1.128,0,0,0,.027-.217c0-.212-.115-.314-.332-.314-.351,0-.48.23-.535.535l-.258,1.393h-.765l.475-2.559h.715l-.051.272h.009a.906.906,0,0,1,.761-.36.919.919,0,0,1,.613.221.668.668,0,0,1,.18.5A1.541,1.541,0,0,1,277.612,360.123Z" transform="translate(-229.891 -358.311)" fill="#302d2c"/>
          <path id="Path_641" data-name="Path 641" d="M285.623,360.676H283.7v.019a.461.461,0,0,0,.512.466.658.658,0,0,0,.507-.24h.784a1.727,1.727,0,0,1-1.411.885,1.087,1.087,0,0,1-1.13-1.107,1.705,1.705,0,0,1,1.619-1.623,1.064,1.064,0,0,1,1.121,1.116A1.429,1.429,0,0,1,285.623,360.676Zm-1.153-.954a.713.713,0,0,0-.659.438h1.162A.457.457,0,0,0,284.47,359.721Z" transform="translate(-234.924 -358.311)" fill="#302d2c"/>
          <path id="Path_642" data-name="Path 642" d="M292.95,359.883H292.2c0-.014,0-.027,0-.041,0-.12-.1-.152-.207-.152s-.254.069-.254.2c0,.346,1.107.194,1.107.9a1.139,1.139,0,0,1-1.222,1.024c-.475,0-.885-.235-.885-.756a.582.582,0,0,1,0-.092h.761l0,.018c0,.152.111.217.249.217s.309-.083.309-.244c0-.337-1.1-.268-1.1-.923a.873.873,0,0,1,.009-.111,1.144,1.144,0,0,1,1.148-.844c.452,0,.839.207.839.71A.706.706,0,0,1,292.95,359.883Z" transform="translate(-239.802 -358.311)" fill="#302d2c"/>
          <path id="Path_643" data-name="Path 643" d="M299.276,359.883h-.752c0-.014,0-.027,0-.041,0-.12-.1-.152-.207-.152s-.254.069-.254.2c0,.346,1.107.194,1.107.9a1.139,1.139,0,0,1-1.222,1.024c-.475,0-.886-.235-.886-.756a.6.6,0,0,1,0-.092h.761l0,.018c0,.152.111.217.249.217s.309-.083.309-.244c0-.337-1.1-.268-1.1-.923a.927.927,0,0,1,.009-.111,1.144,1.144,0,0,1,1.148-.844c.452,0,.839.207.839.71A.691.691,0,0,1,299.276,359.883Z" transform="translate(-243.772 -358.311)" fill="#302d2c"/>
          <path id="Path_644" data-name="Path 644" d="M309.683,359.883h-.752c0-.014,0-.027,0-.041,0-.12-.1-.152-.207-.152s-.254.069-.254.2c0,.346,1.107.194,1.107.9a1.139,1.139,0,0,1-1.222,1.024c-.475,0-.885-.235-.885-.756a.585.585,0,0,1,0-.092h.761l0,.018c0,.152.111.217.249.217s.309-.083.309-.244c0-.337-1.1-.268-1.1-.923a.862.862,0,0,1,.009-.111,1.144,1.144,0,0,1,1.148-.844c.452,0,.839.207.839.71A.652.652,0,0,1,309.683,359.883Z" transform="translate(-250.303 -358.311)" fill="#302d2c"/>
          <path id="Path_645" data-name="Path 645" d="M318.062,360.326l-.258,1.4h-.765l.254-1.36a1.524,1.524,0,0,0,.028-.249A.281.281,0,0,0,317,359.8c-.337,0-.466.235-.521.53l-.258,1.4h-.766l.258-1.393a1.015,1.015,0,0,0,.023-.2c0-.2-.092-.332-.309-.332-.35,0-.48.263-.535.567l-.254,1.36h-.766l.475-2.559h.715l-.051.272h.009a.91.91,0,0,1,.77-.36.642.642,0,0,1,.655.456,1.153,1.153,0,0,1,.895-.456.761.761,0,0,1,.627.258.681.681,0,0,1,.161.452A3.063,3.063,0,0,1,318.062,360.326Z" transform="translate(-254.319 -358.311)" fill="#302d2c"/>
          <path id="Path_646" data-name="Path 646" d="M328.728,361.723h-.765l.05-.277H328a1.071,1.071,0,0,1-1.877-.705,1.648,1.648,0,0,1,1.568-1.664.7.7,0,0,1,.683.36h.009l.051-.272h.765Zm-1.051-1.932a.8.8,0,0,0-.765.766.5.5,0,0,0,.526.539.792.792,0,0,0,.775-.779A.5.5,0,0,0,327.676,359.79Z" transform="translate(-262.009 -358.311)" fill="#302d2c"/>
          <path id="Path_647" data-name="Path 647" d="M336.446,359.846c-.35.009-.618.083-.687.47-.092.47-.175.936-.263,1.406h-.766l.475-2.559h.719l-.051.272h.009a.782.782,0,0,1,.705-.36Z" transform="translate(-267.408 -358.311)" fill="#302d2c"/>
          <path id="Path_648" data-name="Path 648" d="M341.381,358.455h-.369l-.369,1.978h-.765l.369-1.978h-.378l.106-.581h.378l.157-.853h.765l-.156.853h.369Z" transform="translate(-270.632 -357.021)" fill="#302d2c"/>
          <path id="Path_649" data-name="Path 649" d="M346.659,360.676h-1.919v.019a.461.461,0,0,0,.512.466.659.659,0,0,0,.507-.24h.784a1.727,1.727,0,0,1-1.411.885A1.087,1.087,0,0,1,344,360.7a1.705,1.705,0,0,1,1.619-1.623,1.064,1.064,0,0,1,1.121,1.116A1.418,1.418,0,0,1,346.659,360.676Zm-1.153-.954a.713.713,0,0,0-.66.438h1.162A.457.457,0,0,0,345.507,359.721Z" transform="translate(-273.227 -358.311)" fill="#302d2c"/>
          <path id="Path_650" data-name="Path 650" d="M353.524,359.846c-.351.009-.618.083-.687.47-.092.47-.175.936-.263,1.406h-.765l.475-2.559H353l-.051.272h.009a.782.782,0,0,1,.705-.36Z" transform="translate(-278.125 -358.311)" fill="#302d2c"/>
        </g>
      </g>
      <rect id="Rectangle_551" data-name="Rectangle 551" width="111" height="30" transform="translate(4866 18)" fill="none"/>
    </g>
  </g>
</svg>
